<?xml version="1.0" encoding="utf-8"?>
<!-- Generator: Adobe Illustrator 21.1.0, SVG Export Plug-In . SVG Version: 6.00 Build 0)  -->
<svg version="1.1" id="Layer_1" xmlns="http://www.w3.org/2000/svg" xmlns:xlink="http://www.w3.org/1999/xlink" x="0px" y="0px"
	 width="167px" height="59px" viewBox="0 0 167 59" style="enable-background:new 0 0 167 59;" xml:space="preserve">
<style type="text/css">
	.st0{fill:#A3D2A3;}
	.st1{fill:#ECF6EB;}
	.st2{fill:#CDE6CA;}
</style>
<path class="st0" d="M2,9.7h11.7c2.3,0,4,0.1,5.2,0.3c1.1,0.2,2.2,0.6,3.1,1.2c0.9,0.6,1.6,1.4,2.2,2.4c0.6,1,0.9,2.2,0.9,3.4
	c0,1.4-0.4,2.6-1.1,3.8c-0.7,1.1-1.7,2-3,2.6c1.8,0.5,3.2,1.4,4.1,2.7c1,1.3,1.4,2.7,1.4,4.4c0,1.3-0.3,2.6-0.9,3.9
	c-0.6,1.3-1.5,2.3-2.5,3c-1.1,0.8-2.4,1.2-4,1.4c-1,0.1-3.4,0.2-7.1,0.2H2V9.7z M7.9,14.6v6.8h3.9c2.3,0,3.7,0,4.3-0.1
	c1-0.1,1.8-0.5,2.4-1c0.6-0.6,0.9-1.3,0.9-2.3c0-0.9-0.3-1.6-0.7-2.2c-0.5-0.6-1.2-0.9-2.2-1c-0.6-0.1-2.3-0.1-5.1-0.1H7.9z
	 M7.9,26.2v7.8h5.5c2.1,0,3.5-0.1,4.1-0.2c0.9-0.2,1.6-0.5,2.1-1.2c0.6-0.6,0.8-1.4,0.8-2.5c0-0.9-0.2-1.6-0.6-2.2
	c-0.4-0.6-1-1.1-1.8-1.3c-0.8-0.3-2.6-0.4-5.2-0.4H7.9z"/>
<path class="st0" d="M31.5,14.9V9.7h5.6v5.2H31.5z M31.5,39V17.8h5.6V39H31.5z"/>
<path class="st0" d="M40.6,39v-4.4l8-9.1c1.3-1.5,2.3-2.6,2.9-3.2c-0.7,0-1.5,0.1-2.6,0.1l-7.5,0v-4.7H59v4l-8.1,9.4L48,34.2
	c1.6-0.1,2.5-0.1,2.9-0.1h8.7V39H40.6z"/>
<path class="st0" d="M61.9,29.5l5.8-0.6c0.3,1.9,1,3.4,2.1,4.3c1.1,0.9,2.5,1.4,4.3,1.4c1.9,0,3.3-0.4,4.3-1.2
	c1-0.8,1.4-1.7,1.4-2.8c0-0.7-0.2-1.3-0.6-1.8c-0.4-0.5-1.1-0.9-2.1-1.3c-0.7-0.2-2.3-0.7-4.7-1.3c-3.2-0.8-5.4-1.8-6.7-2.9
	c-1.8-1.6-2.7-3.6-2.7-5.9c0-1.5,0.4-2.9,1.3-4.2c0.8-1.3,2.1-2.3,3.7-3c1.6-0.7,3.5-1,5.8-1c3.7,0,6.4,0.8,8.3,2.4
	c1.9,1.6,2.8,3.8,2.9,6.5L79,18.3c-0.3-1.5-0.8-2.6-1.6-3.2c-0.8-0.7-2.1-1-3.7-1c-1.7,0-3.1,0.4-4,1.1c-0.6,0.5-0.9,1.1-0.9,1.8
	c0,0.7,0.3,1.3,0.9,1.8c0.7,0.6,2.6,1.3,5.4,2c2.9,0.7,5,1.4,6.4,2.1c1.4,0.7,2.5,1.7,3.2,3c0.8,1.3,1.2,2.8,1.2,4.7
	c0,1.7-0.5,3.3-1.4,4.7c-0.9,1.5-2.3,2.6-4,3.3c-1.7,0.7-3.8,1.1-6.4,1.1c-3.7,0-6.6-0.9-8.5-2.6C63.5,35.3,62.3,32.8,61.9,29.5z"/>
<path class="st0" d="M90.5,39V9.7h5.6v15.6l6.6-7.5h6.9l-7.3,7.8l7.8,13.5h-6.1l-5.3-9.5l-2.6,2.7V39H90.5z"/>
<path class="st0" d="M146.2,33l5.6-0.9c0.2,1.1,0.7,1.9,1.5,2.5c0.7,0.6,1.8,0.8,3.1,0.8c1.5,0,2.5-0.3,3.3-0.8
	c0.5-0.4,0.7-0.9,0.7-1.5c0-0.4-0.1-0.8-0.4-1.1c-0.3-0.3-0.9-0.5-1.9-0.7c-4.5-1-7.4-1.9-8.6-2.7c-1.7-1.1-2.5-2.7-2.5-4.8
	c0-1.8,0.7-3.4,2.2-4.6c1.5-1.3,3.7-1.9,6.8-1.9c2.9,0,5.1,0.5,6.5,1.4c1.4,0.9,2.4,2.3,2.9,4.2l-5.3,1c-0.2-0.8-0.7-1.5-1.3-1.9
	c-0.6-0.4-1.5-0.7-2.7-0.7c-1.5,0-2.5,0.2-3.2,0.6c-0.4,0.3-0.6,0.7-0.6,1.1c0,0.4,0.2,0.7,0.6,1c0.5,0.4,2.3,0.9,5.2,1.6
	c3,0.7,5.1,1.5,6.3,2.5c1.2,1,1.8,2.4,1.8,4.2c0,1.9-0.8,3.6-2.4,5c-1.6,1.4-4,2.1-7.2,2.1c-2.9,0-5.2-0.6-6.9-1.8
	C147.8,36.6,146.7,35,146.2,33z"/>
<rect x="114.1" y="17.8" class="st1" width="5.8" height="21.3"/>
<rect x="124.9" y="9.6" class="st2" width="5.8" height="29.4"/>
<rect x="135.8" y="2.1" class="st0" width="6.6" height="36.7"/>
<g>
	<path class="st0" d="M9.7,57.3H8l-0.7-1.7H4.3l-0.6,1.7H2l3-7.7h1.6L9.7,57.3z M6.9,54.2l-1.1-2.9l-1,2.9H6.9z"/>
	<path class="st0" d="M18.3,54.5l1.5,0.5c-0.2,0.8-0.6,1.5-1.2,1.9s-1.2,0.6-2,0.6c-1,0-1.9-0.3-2.5-1c-0.7-0.7-1-1.7-1-2.9
		c0-1.3,0.3-2.3,1-3c0.7-0.7,1.5-1.1,2.6-1.1c0.9,0,1.7,0.3,2.3,0.8c0.3,0.3,0.6,0.8,0.8,1.4l-1.5,0.4c-0.1-0.4-0.3-0.7-0.6-0.9
		c-0.3-0.2-0.6-0.3-1.1-0.3c-0.6,0-1,0.2-1.4,0.6c-0.4,0.4-0.5,1.1-0.5,2c0,1,0.2,1.7,0.5,2.1c0.3,0.4,0.8,0.6,1.4,0.6
		c0.4,0,0.8-0.1,1.1-0.4C17.9,55.4,18.1,55,18.3,54.5z"/>
	<path class="st0" d="M30.8,57.3h-1.7l-0.7-1.7h-3.1l-0.6,1.7h-1.6l3-7.7h1.6L30.8,57.3z M28,54.2l-1.1-2.9l-1,2.9H28z"/>
	<path class="st0" d="M34.4,49.6h2.8c0.6,0,1.1,0,1.5,0.1c0.5,0.1,0.8,0.4,1.2,0.7c0.3,0.3,0.6,0.8,0.7,1.2c0.2,0.5,0.3,1.1,0.3,1.8
		c0,0.6-0.1,1.2-0.2,1.6c-0.2,0.6-0.5,1-0.8,1.4c-0.3,0.3-0.6,0.5-1.1,0.6c-0.3,0.1-0.8,0.2-1.4,0.2h-2.9V49.6z M36,50.9V56h1.2
		c0.4,0,0.7,0,0.9-0.1c0.3-0.1,0.5-0.2,0.6-0.3c0.2-0.2,0.3-0.4,0.4-0.7c0.1-0.3,0.2-0.8,0.2-1.4c0-0.6-0.1-1.1-0.2-1.4
		c-0.1-0.3-0.3-0.6-0.4-0.7C38.5,51.2,38.3,51,38,51c-0.2,0-0.6-0.1-1.3-0.1H36z"/>
	<path class="st0" d="M45,57.3v-7.7h5.7v1.3h-4.2v1.7h3.9v1.3h-3.9V56h4.3v1.3H45z"/>
	<path class="st0" d="M54.9,57.3v-7.7h2.3l1.4,5.2l1.4-5.2h2.3v7.7h-1.4v-6.1l-1.5,6.1h-1.5l-1.5-6.1v6.1H54.9z"/>
	<path class="st0" d="M68.7,57.3v-3.2l-2.8-4.5h1.8l1.8,3l1.8-3h1.8l-2.8,4.5v3.2H68.7z"/>
</g>
</svg>
